<svg id="Layer_1" data-name="Layer 1" xmlns="http://www.w3.org/2000/svg" viewBox="0 0 612.208 483.141">
  <path d="M612.208,482.382H0c6.708-19.8,19.1-36.591,36.56-41.573,25.546-7.279,52.581,12.736,78.07,5.21,14.482-4.271,25.883-16.717,37.863-27.052,45.2-39,107.128-50.521,160.615-29.882,27.954,10.784,53.427,29.642,82.063,37.659,37.031,10.371,75.755,1.77,113.836.353C546.092,425.717,599.231,443.207,612.208,482.382Z" fill="#f3f5fd"></path>
  <g>
    <rect x="14.053" y="402.009" width="160.001" height="6" transform="translate(-321.557 392.941) rotate(-75.263)" fill="#c1d8ed"></rect>
    <rect x="189.799" y="326.693" width="6" height="156.63" transform="translate(-60.409 34.753) rotate(-8.911)" fill="#c1d8ed"></rect>
    <path d="M106.056,179.208s-49.565-3.131-49.565,40.174,7.3,103.826,43.826,110.608,90.481,4.738,103.008,2.615c15.391-2.609,22.1-38.311,1.6-40.7C146.751,285.122,174.925,183.9,106.056,179.208Z" fill="#c1d8ed"></path>
  </g>
  <line x1="211.276" y1="453.236" x2="209.39" y2="477.695" fill="none" stroke="#eda59f" stroke-miterlimit="10" stroke-width="21"></line>
  <path d="M246.465,482.2a4.107,4.107,0,0,0,4.089-4.125c0-.1,0-.2-.013-.3h0a4.108,4.108,0,0,0-2.658-3.529l-24.443-8.187a3.463,3.463,0,0,0-2.872.32,19.112,19.112,0,0,1-11.468,3.4,17.023,17.023,0,0,1-8.82-3.223,1.547,1.547,0,0,0-2.528,1.2V479.7a2.678,2.678,0,0,0,2.678,2.678h.011Z" fill="#c1d8ed"></path>
  <line x1="294.58" y1="453.236" x2="298.694" y2="477.695" fill="none" stroke="#eda59f" stroke-miterlimit="10" stroke-width="21"></line>
  <path d="M315.634,456.851,269.526,279.466a18.5,18.5,0,0,0-17.9-13.845H150.578v.065H93.969v17.348a38.087,38.087,0,0,0,38.086,38.088h27.61v.109h48.2L194.593,462.345l36.838,3.464,12.833-136.455,35.56,136.805Z" fill="#4F46E5"></path>
  <g>
    <path d="M238.644,180.906s.15-12.011,8.735-11.386c5.416.394,31.151-.8,31.534,1.544.948,5.8-22.592,7.218-24.728,12.622Z" fill="#EDA59F"></path>
    <path d="M244.339,169.905s11.949-3.9,14.886-3.2c2.6.618-2.82,4.85-2.82,4.85Z" fill="#EDA59F"></path>
  </g>
  <path d="M213.963,233.609,256.6,183.975l-18.374-10.332L204.084,212.05l-26.7-47.791c-2.526-7.553-8.28-12.613-20.02-13.119-.63-.02-1.64-.05-2.94-.07-.26,5.5-34.33,5.48-35.05-.13-9.62.01-17.52,2.97-22.08,7.53-15.75,15.75,3.58,42.59,3.58,63.59s-9.5,30.42-8.8,41.2c1.1,16.94,83.43,12.94,87.62,3.31,2.81-6.452.087-11.3-2.056-22.837h36.324ZM175.635,218.06c.041-3.533.314-7.23.689-10.992l8.3,14.86h-8.986c-.013-1.251-.018-2.529,0-3.868Z" fill="#E02CCC"></path>
  <path d="M154.425,151.07c-.26,5.5-3.26,13.59-12.48,14.19-12.31.82-21.85-8.71-22.57-14.32h.04C131.515,150.94,147.355,150.96,154.425,151.07Z" fill="#EDA59F"></path>
  <path d="M332.769,482.2a4.109,4.109,0,0,0,4.089-4.127c0-.1,0-.2-.013-.3h0a4.11,4.11,0,0,0-2.659-3.529l-24.442-8.187a3.466,3.466,0,0,0-2.873.32,19.109,19.109,0,0,1-11.467,3.4,17.026,17.026,0,0,1-8.821-3.223,1.547,1.547,0,0,0-2.527,1.2V479.7a2.678,2.678,0,0,0,2.678,2.678h.011Z" fill="#c1d8ed"></path>
  <g>
    <rect x="36.678" y="253.425" width="9.391" height="228.957" fill="#c1d8ed"></rect>
    <rect x="489.652" y="253.425" width="9.391" height="228.957" fill="#dee8f5"></rect>
    <rect x="142.239" y="253.425" width="9.391" height="228.957" fill="#dee8f5"></rect>
    <rect x="386.454" y="253.425" width="9.391" height="228.957" fill="#c1d8ed"></rect>
    <rect x="23.695" y="243.969" width="488.332" height="12.913" fill="#dee8f5"></rect>
  </g>
  <path d="M244.086,235.059c-5.73-.337-15.891-1.278-20.13-3.793,2.149-.656,5.031-1.727,4.76-2.689-.711-2.531-10.674-.958-13.654-.958l-1.085.045v12.805s19.634,7.362,31.19-2.064A1.888,1.888,0,0,0,244.086,235.059Z" fill="#EDA59F"></path>
  <g>
    <g>
      <path d="M300.158,186.173l-12.142,50.972a5.4,5.4,0,0,0,5.251,6.649h71.584a5.4,5.4,0,0,0,5.206-3.969l13.991-50.971a5.4,5.4,0,0,0-5.206-6.828H305.41A5.4,5.4,0,0,0,300.158,186.173Z" fill="#9ebcea"></path>
      <path d="M262.532,243.794h86.519a3.172,3.172,0,0,0,3.172-3.172h0a3.172,3.172,0,0,0-3.172-3.172H262.532a3.172,3.172,0,0,0-3.172,3.172h0A3.172,3.172,0,0,0,262.532,243.794Z" fill="#9ebcea"></path>
    </g>
    <circle cx="338.963" cy="212.407" r="8.466" fill="#fff"></circle>
  </g>
  <g>
    <circle cx="155.886" cy="120.635" r="9.584" fill="#dee8f5"></circle>
    <path d="M157.555,121.753a2,2,0,0,0,1.533-1.386c.25-.83,2.892-20.361-4.755-32.129a14.908,14.908,0,0,0-11.558-7.164,2,2,0,0,0-2.2,1.783c-.114,1.1.685,1.082,1.784,1.2,5.331.552,6.139,2.646,8.642,6.4,6.747,10.129,4.309,28.572,4.254,28.757a2,2,0,0,0,2.3,2.54Z" fill="#c1d8ed"></path>
    <circle cx="153.411" cy="120.41" r="9.584" fill="#c1d8ed"></circle>
    <g>
      <path d="M128.646,137.891c.01-.28.01-.549.01-.839.01-1.82-.069-3.8-.25-5.96l2.1-.39,13.879-2.571a57.482,57.482,0,0,0,.161,10.66c.049.4.1.811.159,1.221.04.32.091.649.15.97s.1.629.17.94c.12.66.26,1.32.43,1.969a4.117,4.117,0,0,0,.12.461.276.276,0,0,0,.02.08c.08.33.18.67.29.99.11.369.23.729.371,1.09.04.109.08.23.129.34.13.36.28.71.44,1.049.17.39.36.771.56,1.14.01,0,.01.011.01.011a11.645,11.645,0,0,0,3.111,3.809H125.376C126.926,150.182,128.526,145.572,128.646,137.891Z" fill="#EDA59F"></path>
      <path d="M147.4,149.056,134.127,138.9l10.424-.108A28.761,28.761,0,0,0,147.4,149.056Z" opacity="0.15"></path>
      <path d="M119.344,122.928c1.106,6.388,4.593,12.438,10.228,14.5,6.689,2.45,11.644,2.616,19.357,2.616,10.526,0,10.178-10.977,10.473-22.038.3-11.106-.586-23.019-4.746-26.889-8.3-7.724-32.673-2.832-35.637,10.088C117.486,107.888,118.292,116.847,119.344,122.928Z" fill="#EDA59F"></path>
      <path d="M165.905,91c-1.761-6.456-7.248-9.611-16.323-7.239-6.454,1.687-7.271.17-12.736-2.461-3.13-1.507-13.4-.818-15.941,6.132-2.724,7.446-11.152,1.416-11.935,13.546-.654,10.153,1.312,23.339,12.591,32.213h0a27.274,27.274,0,0,0,6.073,4.595c.957.568,1.189.1,1.521-.957,1.174-3.756,3.548-16.888,2.578-27.574-.159-1.758.169-4.49,4.677-4.68,4.924-.207,17.721.9,22.25-2.346C158.66,102.224,167.666,97.452,165.905,91Z" fill="#0f1011"></path>
      <g>
        <circle cx="144.363" cy="116.558" r="1.449" fill="#0f1011"></circle>
        <circle cx="155.794" cy="115.621" r="1.449" fill="#0f1011"></circle>
        <path d="M158.305,112.533H158.3l-3.839-.048a.681.681,0,0,1,.008-1.361h.009l3.839.048a.681.681,0,0,1-.009,1.361Z" fill="#0f1011"></path>
        <path d="M141.235,113.932a.681.681,0,0,1-.158-1.343l3.784-.911a.681.681,0,0,1,.318,1.325l-3.784.911A.734.734,0,0,1,141.235,113.932Z" fill="#0f1011"></path>
      </g>
      <path d="M136.825,120.1a6.143,6.143,0,1,1-12.244,1,6.041,6.041,0,0,1,5.62-6.625C134.579,114.341,136.548,116.722,136.825,120.1Z" fill="#EDA59F"></path>
      <g opacity="0.15">
        <path d="M150.795,124.6a.5.5,0,0,1-.147-.978l2.947-.905-2.061-4.59a.5.5,0,0,1,.912-.41l2.293,5.106a.5.5,0,0,1-.309.684l-3.488,1.071A.5.5,0,0,1,150.795,124.6Z"></path>
      </g>
      <path d="M145.033,127.97s5.349.564,9.1-.746c0,0-.03,3.522-4.262,3.869S145.033,127.97,145.033,127.97Z" fill="#f8fcff"></path>
    </g>
    <path d="M121.033,120.606l.087-.019a2,2,0,0,0,1.476-2.412c-.039-.165-3.867-16.566,3.554-26.49,3.5-4.68,9.054-7.245,16.52-7.625,1.089-.051,1.953.007,1.9-1.1a2.1,2.1,0,0,0-2.1-1.895c-6.874-.515-15.285,2.552-19.531,8.239-8.542,11.442-4.409,29.064-4.228,29.809A2,2,0,0,0,121.033,120.606Z" fill="#c1d8ed"></path>
    <circle cx="123.879" cy="120.987" r="9.584" fill="#c1d8ed"></circle>
    <circle cx="120.935" cy="121.275" r="9.584" fill="#dee8f5"></circle>
    <path d="M122.093,126.333a49.906,49.906,0,0,0,1.786,6.189c1.157,1.914,17.54,1.05,17.54,1.05" fill="none" stroke="#dee8f5" stroke-linecap="round" stroke-linejoin="round" stroke-width="3"></path>
    <rect x="138.723" y="131.26" width="6.721" height="4.69" rx="2.345" transform="translate(284.168 267.211) rotate(-180)" fill="#c1d8ed"></rect>
  </g>
  <g>
    <rect x="326.734" width="224.183" height="144.003" fill="#dee8f5"></rect>
    <rect x="326.734" width="224.183" height="23.575" fill="#c1d8ed"></rect>
  </g>
  <rect x="342.6" y="38.602" width="38.362" height="38.362" fill="#fff"></rect>
  <rect x="394.199" y="38.602" width="38.362" height="38.362" fill="#fff"></rect>
  <rect x="445.798" y="38.602" width="38.362" height="38.362" fill="#fff"></rect>
  <rect x="342.6" y="89.732" width="38.362" height="38.362" fill="#fff"></rect>
  <rect x="394.199" y="89.732" width="38.362" height="38.362" fill="#fff"></rect>
  <rect x="445.798" y="89.732" width="38.362" height="38.362" fill="#fff"></rect>
  <rect x="497.692" y="38.602" width="38.362" height="38.362" fill="#fff"></rect>
  <g>
    <g>
      <circle cx="516.873" cy="57.783" r="11.406" fill="#FFC107"></circle>
      <path d="M514.673,63.9a1.007,1.007,0,0,1-.69-.274l-4.874-4.6a1,1,0,1,1,1.379-1.461l4.129,3.9L523.2,52a1,1,0,1,1,1.487,1.35l-9.274,10.22a1,1,0,0,1-.705.329Z" fill="#fff"></path>
    </g>
    <g>
      <circle cx="465.176" cy="57.783" r="11.406" fill="#FFC107"></circle>
      <path d="M462.976,63.9a1.007,1.007,0,0,1-.69-.274l-4.874-4.6a1,1,0,1,1,1.379-1.461l4.129,3.9L471.506,52a1,1,0,1,1,1.488,1.35l-9.275,10.22a1,1,0,0,1-.7.329Z" fill="#fff"></path>
    </g>
    <g>
      <circle cx="361.781" cy="57.783" r="11.406" fill="#FFC107"></circle>
      <path d="M359.581,63.9a1,1,0,0,1-.689-.274l-4.874-4.6a1,1,0,1,1,1.378-1.461l4.13,3.9L368.112,52a1,1,0,0,1,1.488,1.35l-9.275,10.22a1,1,0,0,1-.7.329Z" fill="#fff"></path>
    </g>
    <g>
      <circle cx="413.479" cy="57.783" r="11.406" fill="#FFC107"></circle>
      <path d="M411.278,63.9a1,1,0,0,1-.689-.274l-4.874-4.6a1,1,0,1,1,1.379-1.461l4.129,3.9L419.809,52a1,1,0,0,1,1.488,1.35l-9.275,10.22a1,1,0,0,1-.7.329Z" fill="#fff"></path>
    </g>
  </g>
  <g>
    <g>
      <circle cx="465.176" cy="108.913" r="11.406" fill="#FFC107"></circle>
      <path d="M462.976,115.028a1.007,1.007,0,0,1-.69-.274l-4.874-4.6a1,1,0,1,1,1.379-1.461l4.129,3.9,8.586-9.462a1,1,0,1,1,1.488,1.35l-9.275,10.22a1,1,0,0,1-.7.329Z" fill="#fff"></path>
    </g>
    <g>
      <circle cx="361.781" cy="108.913" r="11.406" fill="#FFC107"></circle>
      <path d="M359.581,115.028a1,1,0,0,1-.689-.274l-4.874-4.6a1,1,0,1,1,1.378-1.461l4.13,3.9,8.586-9.462a1,1,0,1,1,1.488,1.35l-9.275,10.22a1,1,0,0,1-.7.329Z" fill="#fff"></path>
    </g>
    <g>
      <circle cx="413.479" cy="108.913" r="11.406" fill="#FFC107"></circle>
      <path d="M411.278,115.028a1,1,0,0,1-.689-.274l-4.874-4.6a1,1,0,1,1,1.379-1.461l4.129,3.9,8.586-9.462a1,1,0,0,1,1.488,1.35l-9.275,10.22a1,1,0,0,1-.7.329Z" fill="#fff"></path>
    </g>
  </g>
  <g>
    <g>
      <rect x="478.646" y="314.705" width="7.181" height="38.077" transform="translate(-63.85 119.907) rotate(-13.302)" fill="#f0f6ff"></rect>
      <g>
        <rect x="471.44" y="326.161" width="33.073" height="3.945" transform="translate(76.765 748.488) rotate(-79.548)" fill="#c1d8ed"></rect>
        <rect x="488.809" y="311.693" width="3.652" height="3.945" transform="translate(90.777 737.012) rotate(-79.225)" fill="#dee8f5"></rect>
      </g>
      <rect x="481.078" y="319.012" width="2.315" height="34.299" transform="translate(-89.652 200.146) rotate(-21.502)" fill="#FFC107"></rect>
      <rect x="474.274" y="333.744" width="18.951" height="24.22" fill="#c1d8ed"></rect>
    </g>
    <g>
      <g>
        <rect x="444.069" y="405.997" width="7.765" height="76.385" fill="#c1d8ed"></rect>
        <rect x="437.679" y="405.997" width="7.765" height="76.385" fill="#dee8f5"></rect>
      </g>
      <g>
        <rect x="540.784" y="405.997" width="7.765" height="76.385" fill="#c1d8ed"></rect>
        <rect x="534.394" y="405.997" width="7.765" height="76.385" fill="#dee8f5"></rect>
      </g>
      <g>
        <rect x="465.366" y="405.997" width="7.765" height="76.385" fill="#c1d8ed"></rect>
        <rect x="458.976" y="405.997" width="7.765" height="76.385" fill="#dee8f5"></rect>
      </g>
      <g>
        <rect x="562.081" y="405.997" width="7.765" height="76.385" fill="#c1d8ed"></rect>
        <rect x="555.691" y="405.997" width="7.765" height="76.385" fill="#dee8f5"></rect>
      </g>
      <rect x="465.414" y="357.103" width="104.431" height="50.726" fill="#c1d8ed"></rect>
      <rect x="437.679" y="357.103" width="104.431" height="50.726" fill="#dee8f5"></rect>
      <g opacity="0.53">
        <rect x="443.297" y="364.314" width="93.195" height="36.08" fill="#f3f5fd"></rect>
      </g>
      <circle cx="489.894" cy="382.353" r="4.139" fill="#fff"></circle>
    </g>
  </g>
  <g>
    <circle cx="548.383" cy="128.094" r="42.835" fill="#c1d8ed"></circle>
    <circle cx="548.383" cy="128.094" r="36.527" fill="#f3f5fd"></circle>
    <g>
      <path d="M566.682,122.233l-17.082,9.6a2.509,2.509,0,0,1-2.468-.023,2.481,2.481,0,0,1-1.233-2.14V103.513a2.485,2.485,0,0,1,4.969,0v21.912l13.376-7.524a2.485,2.485,0,0,1,2.438,4.332Z" fill="#dee8f5"></path>
      <path d="M566.682,122.233l-17.082,9.6a2.509,2.509,0,0,1-2.468-.023,2.481,2.481,0,0,1-1.233-2.14V103.513a2.485,2.485,0,0,1,4.969,0v21.912l13.376-7.524a2.485,2.485,0,0,1,2.438,4.332Z" fill="#c1d8ed"></path>
    </g>
  </g>
</svg>